<svg id="visual" viewBox="0 0 960 540" width="960" height="540" xmlns="http://www.w3.org/2000/svg" xmlns:xlink="http://www.w3.org/1999/xlink" version="1.1"><path d="M0 60L22.8 61C45.7 62 91.3 64 137 65C182.7 66 228.3 66 274 66C319.7 66 365.3 66 411.2 65C457 64 503 62 548.8 62C594.7 62 640.3 64 686 64C731.7 64 777.3 62 823 62C868.7 62 914.3 64 937.2 65L960 66L960 0L937.2 0C914.3 0 868.7 0 823 0C777.3 0 731.7 0 686 0C640.3 0 594.7 0 548.8 0C503 0 457 0 411.2 0C365.3 0 319.7 0 274 0C228.3 0 182.7 0 137 0C91.3 0 45.7 0 22.8 0L0 0Z" fill="#80b54d"></path><path d="M0 104L22.8 104.8C45.7 105.7 91.3 107.3 137 108.2C182.7 109 228.3 109 274 108.2C319.7 107.3 365.3 105.7 411.2 103.8C457 102 503 100 548.8 100.8C594.7 101.7 640.3 105.3 686 105.3C731.7 105.3 777.3 101.7 823 100.8C868.7 100 914.3 102 937.2 103L960 104L960 64L937.2 63C914.3 62 868.7 60 823 60C777.3 60 731.7 62 686 62C640.3 62 594.7 60 548.8 60C503 60 457 62 411.2 63C365.3 64 319.7 64 274 64C228.3 64 182.7 64 137 63C91.3 62 45.7 60 22.8 59L0 58Z" fill="#79b045"></path><path d="M0 131L22.8 131.8C45.7 132.7 91.3 134.3 137 135.2C182.7 136 228.3 136 274 135.2C319.7 134.3 365.3 132.7 411.2 130.8C457 129 503 127 548.8 127.8C594.7 128.7 640.3 132.3 686 132.3C731.7 132.3 777.3 128.7 823 127.8C868.7 127 914.3 129 937.2 130L960 131L960 102L937.2 101C914.3 100 868.7 98 823 98.8C777.3 99.7 731.7 103.3 686 103.3C640.3 103.3 594.7 99.7 548.8 98.8C503 98 457 100 411.2 101.8C365.3 103.7 319.7 105.3 274 106.2C228.3 107 182.7 107 137 106.2C91.3 105.3 45.7 103.7 22.8 102.8L0 102Z" fill="#72aa3c"></path><path d="M0 168L22.8 169C45.7 170 91.3 172 137 172C182.7 172 228.3 170 274 168.2C319.7 166.3 365.3 164.7 411.2 163C457 161.3 503 159.7 548.8 160.5C594.7 161.3 640.3 164.7 686 164.7C731.7 164.7 777.3 161.3 823 161.3C868.7 161.3 914.3 164.7 937.2 166.3L960 168L960 129L937.2 128C914.3 127 868.7 125 823 125.8C777.3 126.7 731.7 130.3 686 130.3C640.3 130.3 594.7 126.7 548.8 125.8C503 125 457 127 411.2 128.8C365.3 130.7 319.7 132.3 274 133.2C228.3 134 182.7 134 137 133.2C91.3 132.3 45.7 130.7 22.8 129.8L0 129Z" fill="#6ba533"></path><path d="M0 217L22.8 217.8C45.7 218.7 91.3 220.3 137 220.3C182.7 220.3 228.3 218.7 274 217C319.7 215.3 365.3 213.7 411.2 211.8C457 210 503 208 548.8 209.7C594.7 211.3 640.3 216.7 686 217.7C731.7 218.7 777.3 215.3 823 214.5C868.7 213.7 914.3 215.3 937.2 216.2L960 217L960 166L937.2 164.3C914.3 162.7 868.7 159.3 823 159.3C777.3 159.3 731.7 162.7 686 162.7C640.3 162.7 594.7 159.3 548.8 158.5C503 157.7 457 159.3 411.2 161C365.3 162.7 319.7 164.3 274 166.2C228.3 168 182.7 170 137 170C91.3 170 45.7 168 22.8 167L0 166Z" fill="#64a02a"></path><path d="M0 249L22.8 249C45.7 249 91.3 249 137 249C182.7 249 228.3 249 274 248.2C319.7 247.3 365.3 245.7 411.2 243C457 240.3 503 236.7 548.8 237.5C594.7 238.3 640.3 243.7 686 244.7C731.7 245.7 777.3 242.3 823 241.5C868.7 240.7 914.3 242.3 937.2 243.2L960 244L960 215L937.2 214.2C914.3 213.3 868.7 211.7 823 212.5C777.3 213.3 731.7 216.7 686 215.7C640.3 214.7 594.7 209.3 548.8 207.7C503 206 457 208 411.2 209.8C365.3 211.7 319.7 213.3 274 215C228.3 216.7 182.7 218.3 137 218.3C91.3 218.3 45.7 216.7 22.8 215.8L0 215Z" fill="#5d9b20"></path><path d="M0 357L22.8 358C45.7 359 91.3 361 137 361C182.7 361 228.3 359 274 358C319.7 357 365.3 357 411.2 354.3C457 351.7 503 346.3 548.8 345.5C594.7 344.7 640.3 348.3 686 350.2C731.7 352 777.3 352 823 352.8C868.7 353.7 914.3 355.3 937.2 356.2L960 357L960 242L937.2 241.2C914.3 240.3 868.7 238.7 823 239.5C777.3 240.3 731.7 243.7 686 242.7C640.3 241.7 594.7 236.3 548.8 235.5C503 234.7 457 238.3 411.2 241C365.3 243.7 319.7 245.3 274 246.2C228.3 247 182.7 247 137 247C91.3 247 45.7 247 22.8 247L0 247Z" fill="#57941a"></path><path d="M0 379L22.8 379.8C45.7 380.7 91.3 382.3 137 382.3C182.7 382.3 228.3 380.7 274 379.8C319.7 379 365.3 379 411.2 376.3C457 373.7 503 368.3 548.8 367.5C594.7 366.7 640.3 370.3 686 372.2C731.7 374 777.3 374 823 374.8C868.7 375.7 914.3 377.3 937.2 378.2L960 379L960 355L937.2 354.2C914.3 353.3 868.7 351.7 823 350.8C777.3 350 731.7 350 686 348.2C640.3 346.3 594.7 342.7 548.8 343.5C503 344.3 457 349.7 411.2 352.3C365.3 355 319.7 355 274 356C228.3 357 182.7 359 137 359C91.3 359 45.7 357 22.8 356L0 355Z" fill="#528d19"></path><path d="M0 401L22.8 401.8C45.7 402.7 91.3 404.3 137 404.3C182.7 404.3 228.3 402.7 274 401.8C319.7 401 365.3 401 411.2 398.2C457 395.3 503 389.7 548.8 388.7C594.7 387.7 640.3 391.3 686 393.2C731.7 395 777.3 395 823 396C868.7 397 914.3 399 937.2 400L960 401L960 377L937.2 376.2C914.3 375.3 868.7 373.7 823 372.8C777.3 372 731.7 372 686 370.2C640.3 368.3 594.7 364.7 548.8 365.5C503 366.3 457 371.7 411.2 374.3C365.3 377 319.7 377 274 377.8C228.3 378.7 182.7 380.3 137 380.3C91.3 380.3 45.7 378.7 22.8 377.8L0 377Z" fill="#4d8518"></path><path d="M0 422L22.8 423C45.7 424 91.3 426 137 426C182.7 426 228.3 424 274 424C319.7 424 365.3 426 411.2 423.3C457 420.7 503 413.3 548.8 411.5C594.7 409.7 640.3 413.3 686 416C731.7 418.7 777.3 420.3 823 421.2C868.7 422 914.3 422 937.2 422L960 422L960 399L937.2 398C914.3 397 868.7 395 823 394C777.3 393 731.7 393 686 391.2C640.3 389.3 594.7 385.7 548.8 386.7C503 387.7 457 393.3 411.2 396.2C365.3 399 319.7 399 274 399.8C228.3 400.7 182.7 402.3 137 402.3C91.3 402.3 45.7 400.7 22.8 399.8L0 399Z" fill="#497e18"></path><path d="M0 444L22.8 444.8C45.7 445.7 91.3 447.3 137 447.3C182.7 447.3 228.3 445.7 274 445.7C319.7 445.7 365.3 447.3 411.2 444.7C457 442 503 435 548.8 433.2C594.7 431.3 640.3 434.7 686 437.3C731.7 440 777.3 442 823 443C868.7 444 914.3 444 937.2 444L960 444L960 420L937.2 420C914.3 420 868.7 420 823 419.2C777.3 418.3 731.7 416.7 686 414C640.3 411.3 594.7 407.7 548.8 409.5C503 411.3 457 418.7 411.2 421.3C365.3 424 319.7 422 274 422C228.3 422 182.7 424 137 424C91.3 424 45.7 422 22.8 421L0 420Z" fill="#447617"></path><path d="M0 541L22.8 541C45.7 541 91.3 541 137 541C182.7 541 228.3 541 274 541C319.7 541 365.3 541 411.2 541C457 541 503 541 548.8 541C594.7 541 640.3 541 686 541C731.7 541 777.3 541 823 541C868.7 541 914.3 541 937.2 541L960 541L960 442L937.2 442C914.3 442 868.7 442 823 441C777.3 440 731.7 438 686 435.3C640.3 432.7 594.7 429.3 548.8 431.2C503 433 457 440 411.2 442.7C365.3 445.3 319.7 443.7 274 443.7C228.3 443.7 182.7 445.3 137 445.3C91.3 445.3 45.7 443.7 22.8 442.8L0 442Z" fill="#406f16"></path></svg>