<svg id="visual" viewBox="0 0 1920 1080" width="1920" height="1080" xmlns="http://www.w3.org/2000/svg" xmlns:xlink="http://www.w3.org/1999/xlink" version="1.1"><path d="M0 120L45.7 121.8C91.3 123.7 182.7 127.3 274.2 129.2C365.7 131 457.3 131 548.8 131C640.3 131 731.7 131 823 129.2C914.3 127.3 1005.7 123.7 1097 123.7C1188.3 123.7 1279.7 127.3 1371.2 127.3C1462.7 127.3 1554.3 123.7 1645.8 123.7C1737.3 123.7 1828.7 127.3 1874.3 129.2L1920 131L1920 0L1874.3 0C1828.7 0 1737.3 0 1645.8 0C1554.3 0 1462.7 0 1371.2 0C1279.7 0 1188.3 0 1097 0C1005.7 0 914.3 0 823 0C731.7 0 640.3 0 548.8 0C457.3 0 365.7 0 274.2 0C182.7 0 91.3 0 45.7 0L0 0Z" fill="#80b54d"></path><path d="M0 206L45.7 207.8C91.3 209.7 182.7 213.3 274.2 215.2C365.7 217 457.3 217 548.8 215.2C640.3 213.3 731.7 209.7 823 206C914.3 202.3 1005.7 198.7 1097 200.5C1188.3 202.3 1279.7 209.7 1371.2 209.7C1462.7 209.7 1554.3 202.3 1645.8 200.5C1737.3 198.7 1828.7 202.3 1874.3 204.2L1920 206L1920 129L1874.3 127.2C1828.7 125.3 1737.3 121.7 1645.8 121.7C1554.3 121.7 1462.7 125.3 1371.2 125.3C1279.7 125.3 1188.3 121.7 1097 121.7C1005.7 121.7 914.3 125.3 823 127.2C731.7 129 640.3 129 548.8 129C457.3 129 365.7 129 274.2 127.2C182.7 125.3 91.3 121.7 45.7 119.8L0 118Z" fill="#79b045"></path><path d="M0 260L45.7 261.8C91.3 263.7 182.7 267.3 274.2 269.2C365.7 271 457.3 271 548.8 269.2C640.3 267.3 731.7 263.7 823 260C914.3 256.3 1005.7 252.7 1097 254.5C1188.3 256.3 1279.7 263.7 1371.2 263.7C1462.7 263.7 1554.3 256.3 1645.8 254.5C1737.3 252.7 1828.7 256.3 1874.3 258.2L1920 260L1920 204L1874.3 202.2C1828.7 200.3 1737.3 196.7 1645.8 198.5C1554.3 200.3 1462.7 207.7 1371.2 207.7C1279.7 207.7 1188.3 200.3 1097 198.5C1005.7 196.7 914.3 200.3 823 204C731.7 207.7 640.3 211.3 548.8 213.2C457.3 215 365.7 215 274.2 213.2C182.7 211.3 91.3 207.7 45.7 205.8L0 204Z" fill="#72aa3c"></path><path d="M0 336L45.7 337.8C91.3 339.7 182.7 343.3 274.2 343.3C365.7 343.3 457.3 339.7 548.8 336C640.3 332.3 731.7 328.7 823 325C914.3 321.3 1005.7 317.7 1097 319.5C1188.3 321.3 1279.7 328.7 1371.2 328.7C1462.7 328.7 1554.3 321.3 1645.8 321.3C1737.3 321.3 1828.7 328.7 1874.3 332.3L1920 336L1920 258L1874.3 256.2C1828.7 254.3 1737.3 250.7 1645.8 252.5C1554.3 254.3 1462.7 261.7 1371.2 261.7C1279.7 261.7 1188.3 254.3 1097 252.5C1005.7 250.7 914.3 254.3 823 258C731.7 261.7 640.3 265.3 548.8 267.2C457.3 269 365.7 269 274.2 267.2C182.7 265.3 91.3 261.7 45.7 259.8L0 258Z" fill="#6ba533"></path><path d="M0 433L45.7 434.8C91.3 436.7 182.7 440.3 274.2 440.3C365.7 440.3 457.3 436.7 548.8 433C640.3 429.3 731.7 425.7 823 422C914.3 418.3 1005.7 414.7 1097 418.3C1188.3 422 1279.7 433 1371.2 434.8C1462.7 436.7 1554.3 429.3 1645.8 427.5C1737.3 425.7 1828.7 429.3 1874.3 431.2L1920 433L1920 334L1874.3 330.3C1828.7 326.7 1737.3 319.3 1645.8 319.3C1554.3 319.3 1462.7 326.7 1371.2 326.7C1279.7 326.7 1188.3 319.3 1097 317.5C1005.7 315.7 914.3 319.3 823 323C731.7 326.7 640.3 330.3 548.8 334C457.3 337.7 365.7 341.3 274.2 341.3C182.7 341.3 91.3 337.7 45.7 335.8L0 334Z" fill="#64a02a"></path><path d="M0 498L45.7 498C91.3 498 182.7 498 274.2 498C365.7 498 457.3 498 548.8 496.2C640.3 494.3 731.7 490.7 823 485.2C914.3 479.7 1005.7 472.3 1097 474.2C1188.3 476 1279.7 487 1371.2 488.8C1462.7 490.7 1554.3 483.3 1645.8 481.5C1737.3 479.7 1828.7 483.3 1874.3 485.2L1920 487L1920 431L1874.3 429.2C1828.7 427.3 1737.3 423.7 1645.8 425.5C1554.3 427.3 1462.7 434.7 1371.2 432.8C1279.7 431 1188.3 420 1097 416.3C1005.7 412.7 914.3 416.3 823 420C731.7 423.7 640.3 427.3 548.8 431C457.3 434.7 365.7 438.3 274.2 438.3C182.7 438.3 91.3 434.7 45.7 432.8L0 431Z" fill="#5d9b20"></path><path d="M0 714L45.7 715.8C91.3 717.7 182.7 721.3 274.2 721.3C365.7 721.3 457.3 717.7 548.8 715.8C640.3 714 731.7 714 823 708.5C914.3 703 1005.7 692 1097 690.2C1188.3 688.3 1279.7 695.7 1371.2 699.3C1462.7 703 1554.3 703 1645.8 704.8C1737.3 706.7 1828.7 710.3 1874.3 712.2L1920 714L1920 485L1874.3 483.2C1828.7 481.3 1737.3 477.7 1645.8 479.5C1554.3 481.3 1462.7 488.7 1371.2 486.8C1279.7 485 1188.3 474 1097 472.2C1005.7 470.3 914.3 477.7 823 483.2C731.7 488.7 640.3 492.3 548.8 494.2C457.3 496 365.7 496 274.2 496C182.7 496 91.3 496 45.7 496L0 496Z" fill="#57941a"></path><path d="M0 757L45.7 758.8C91.3 760.7 182.7 764.3 274.2 764.3C365.7 764.3 457.3 760.7 548.8 758.8C640.3 757 731.7 757 823 751.7C914.3 746.3 1005.7 735.7 1097 733.8C1188.3 732 1279.7 739 1371.2 742.5C1462.7 746 1554.3 746 1645.8 747.8C1737.3 749.7 1828.7 753.3 1874.3 755.2L1920 757L1920 712L1874.3 710.2C1828.7 708.3 1737.3 704.7 1645.8 702.8C1554.3 701 1462.7 701 1371.2 697.3C1279.7 693.7 1188.3 686.3 1097 688.2C1005.7 690 914.3 701 823 706.5C731.7 712 640.3 712 548.8 713.8C457.3 715.7 365.7 719.3 274.2 719.3C182.7 719.3 91.3 715.7 45.7 713.8L0 712Z" fill="#528d19"></path><path d="M0 800L45.7 801.8C91.3 803.7 182.7 807.3 274.2 807.3C365.7 807.3 457.3 803.7 548.8 801.8C640.3 800 731.7 800 823 794.7C914.3 789.3 1005.7 778.7 1097 776.8C1188.3 775 1279.7 782 1371.2 785.5C1462.7 789 1554.3 789 1645.8 790.8C1737.3 792.7 1828.7 796.3 1874.3 798.2L1920 800L1920 755L1874.3 753.2C1828.7 751.3 1737.3 747.7 1645.8 745.8C1554.3 744 1462.7 744 1371.2 740.5C1279.7 737 1188.3 730 1097 731.8C1005.7 733.7 914.3 744.3 823 749.7C731.7 755 640.3 755 548.8 756.8C457.3 758.7 365.7 762.3 274.2 762.3C182.7 762.3 91.3 758.7 45.7 756.8L0 755Z" fill="#4d8518"></path><path d="M0 843L45.7 844.8C91.3 846.7 182.7 850.3 274.2 850.3C365.7 850.3 457.3 846.7 548.8 846.7C640.3 846.7 731.7 850.3 823 845C914.3 839.7 1005.7 825.3 1097 821.8C1188.3 818.3 1279.7 825.7 1371.2 831C1462.7 836.3 1554.3 839.7 1645.8 841.3C1737.3 843 1828.7 843 1874.3 843L1920 843L1920 798L1874.3 796.2C1828.7 794.3 1737.3 790.7 1645.8 788.8C1554.3 787 1462.7 787 1371.2 783.5C1279.7 780 1188.3 773 1097 774.8C1005.7 776.7 914.3 787.3 823 792.7C731.7 798 640.3 798 548.8 799.8C457.3 801.7 365.7 805.3 274.2 805.3C182.7 805.3 91.3 801.7 45.7 799.8L0 798Z" fill="#497e18"></path><path d="M0 887L45.7 888.7C91.3 890.3 182.7 893.7 274.2 893.7C365.7 893.7 457.3 890.3 548.8 890.3C640.3 890.3 731.7 893.7 823 888.2C914.3 882.7 1005.7 868.3 1097 864.8C1188.3 861.3 1279.7 868.7 1371.2 874.2C1462.7 879.7 1554.3 883.3 1645.8 885.2C1737.3 887 1828.7 887 1874.3 887L1920 887L1920 841L1874.3 841C1828.7 841 1737.3 841 1645.8 839.3C1554.3 837.7 1462.7 834.3 1371.2 829C1279.7 823.7 1188.3 816.3 1097 819.8C1005.7 823.3 914.3 837.7 823 843C731.7 848.3 640.3 844.7 548.8 844.7C457.3 844.7 365.7 848.3 274.2 848.3C182.7 848.3 91.3 844.7 45.7 842.8L0 841Z" fill="#447617"></path><path d="M0 1081L45.7 1081C91.3 1081 182.7 1081 274.2 1081C365.7 1081 457.3 1081 548.8 1081C640.3 1081 731.7 1081 823 1081C914.3 1081 1005.7 1081 1097 1081C1188.3 1081 1279.7 1081 1371.2 1081C1462.7 1081 1554.3 1081 1645.8 1081C1737.3 1081 1828.7 1081 1874.3 1081L1920 1081L1920 885L1874.3 885C1828.7 885 1737.3 885 1645.8 883.2C1554.3 881.3 1462.7 877.7 1371.2 872.2C1279.7 866.7 1188.3 859.3 1097 862.8C1005.7 866.3 914.3 880.7 823 886.2C731.7 891.7 640.3 888.3 548.8 888.3C457.3 888.3 365.7 891.7 274.2 891.7C182.7 891.7 91.3 888.3 45.7 886.7L0 885Z" fill="#406f16"></path></svg>